<mxfile host="Electron" modified="2024-07-24T21:50:47.588Z" agent="Mozilla/5.0 (Windows NT 10.0; Win64; x64) AppleWebKit/537.36 (KHTML, like Gecko) draw.io/24.2.5 Chrome/120.0.6099.109 Electron/28.1.0 Safari/537.36" etag="x9s5h7UV_9kMRAW6q9lf" version="24.2.5" type="device">
  <diagram id="C5RBs43oDa-KdzZeNtuy" name="Page-1">
    <mxGraphModel dx="2117" dy="1798" grid="1" gridSize="10" guides="1" tooltips="1" connect="1" arrows="1" fold="1" page="1" pageScale="1" pageWidth="827" pageHeight="1169" math="0" shadow="0">
      <root>
        <mxCell id="WIyWlLk6GJQsqaUBKTNV-0" />
        <mxCell id="WIyWlLk6GJQsqaUBKTNV-1" parent="WIyWlLk6GJQsqaUBKTNV-0" />
        <mxCell id="icZwBJ85BuKA_--vlMJg-1" style="edgeStyle=orthogonalEdgeStyle;rounded=0;orthogonalLoop=1;jettySize=auto;html=1;noEdgeStyle=1;orthogonal=1;" edge="1" parent="WIyWlLk6GJQsqaUBKTNV-1" source="ZilCAwPeWC5lEz1yRkBf-0" target="icZwBJ85BuKA_--vlMJg-0">
          <mxGeometry relative="1" as="geometry">
            <Array as="points">
              <mxPoint x="152" y="30" />
              <mxPoint x="228" y="30" />
            </Array>
          </mxGeometry>
        </mxCell>
        <mxCell id="ZilCAwPeWC5lEz1yRkBf-0" value="TimRefreshController" style="rounded=0;whiteSpace=wrap;html=1;fillColor=#D4E1F5;container=0;" parent="WIyWlLk6GJQsqaUBKTNV-1" vertex="1">
          <mxGeometry width="140" height="60" as="geometry" />
        </mxCell>
        <mxCell id="icZwBJ85BuKA_--vlMJg-0" value="TimRefreshConfiguration" style="rounded=0;whiteSpace=wrap;html=1;fillColor=#D4E1F5;container=0;" vertex="1" parent="WIyWlLk6GJQsqaUBKTNV-1">
          <mxGeometry x="240" width="140" height="60" as="geometry" />
        </mxCell>
        <mxCell id="icZwBJ85BuKA_--vlMJg-2" value="tim-refresh" style="swimlane;whiteSpace=wrap;html=1;" vertex="1" parent="WIyWlLk6GJQsqaUBKTNV-1">
          <mxGeometry x="-30" y="-50" width="444" height="160" as="geometry" />
        </mxCell>
      </root>
    </mxGraphModel>
  </diagram>
</mxfile>
